<svg preserveAspectRatio="none" width="100%" height="100%" overflow="visible" style="display: block;" viewBox="0 0 120.075 28.6798" fill="none" xmlns="http://www.w3.org/2000/svg">
<g id="Group 1885">
<g id="Group 1881">
<circle id="Ellipse 1688" opacity="0.735779" cx="3.30932" cy="3.30932" r="3.30932" fill="var(--fill-0, white)" fill-opacity="0.6"/>
<circle id="Ellipse 1691" opacity="0.16" cx="3.30932" cy="14.3408" r="3.30932" fill="var(--fill-0, white)" fill-opacity="0.6"/>
<circle id="Ellipse 1689" opacity="0.667932" cx="14.3408" cy="3.30932" r="3.30932" fill="var(--fill-0, white)" fill-opacity="0.6"/>
<circle id="Ellipse 1692" opacity="0.354883" cx="14.3408" cy="14.3408" r="3.30932" fill="var(--fill-0, white)" fill-opacity="0.6"/>
<circle id="Ellipse 1695" opacity="0.155146" cx="14.3408" cy="25.3704" r="3.30932" fill="var(--fill-0, white)" fill-opacity="0.6"/>
<circle id="Ellipse 1693" opacity="0.823169" cx="25.3713" cy="14.3408" r="3.30932" fill="var(--fill-0, white)" fill-opacity="0.6"/>
<circle id="Ellipse 1696" opacity="0.142874" cx="25.3713" cy="25.3704" r="3.30932" fill="var(--fill-0, white)" fill-opacity="0.6"/>
</g>
<g id="Journey">
<path d="M41.0751 17.1882H43.6426C43.6776 18.5886 44.6929 19.5456 46.1517 19.5456C47.8672 19.5456 48.8008 18.5186 48.8008 16.593V4.66604H51.4149V16.6047C51.4149 19.9424 49.4543 21.8796 46.175 21.8796C43.1407 21.8796 41.0751 19.9891 41.0751 17.1882Z" fill="var(--fill-0, white)" fill-opacity="0.6"/>
<path d="M58.8087 21.7396C55.296 21.7396 52.9853 19.3238 52.9853 15.3676C52.9853 11.4231 55.3077 9.00737 58.8087 9.00737C62.3098 9.00737 64.6322 11.4231 64.6322 15.3676C64.6322 19.3238 62.3215 21.7396 58.8087 21.7396ZM58.8087 19.6623C60.7927 19.6623 62.0647 18.0985 62.0647 15.3676C62.0647 12.6485 60.781 11.0847 58.8087 11.0847C56.8365 11.0847 55.5527 12.6485 55.5527 15.3676C55.5527 18.0985 56.8365 19.6623 58.8087 19.6623Z" fill="var(--fill-0, white)" fill-opacity="0.6"/>
<path d="M76.3906 9.2291V21.5062H73.9749V19.4289H73.9165C73.2397 20.8993 71.9909 21.7279 70.112 21.7279C67.4396 21.7279 65.8057 19.9891 65.8057 17.1765V9.2291H68.3265V16.6864C68.3265 18.5536 69.2134 19.5573 70.9523 19.5573C72.7729 19.5573 73.8699 18.2969 73.8699 16.383V9.2291H76.3906Z" fill="var(--fill-0, white)" fill-opacity="0.6"/>
<path d="M78.171 21.5062V9.2291H80.5751V11.3181H80.6334C81.0419 9.88263 82.1389 9.03071 83.586 9.03071C83.9478 9.03071 84.2629 9.08906 84.4496 9.12407V11.4698C84.2512 11.3881 83.8078 11.3297 83.3176 11.3297C81.6954 11.3297 80.6918 12.4151 80.6918 14.1539V21.5062H78.171Z" fill="var(--fill-0, white)" fill-opacity="0.6"/>
<path d="M85.2964 21.5062V9.2291H87.7005V11.2831H87.7588C88.424 9.88263 89.7311 9.01904 91.6217 9.01904C94.3292 9.01904 95.8813 10.7462 95.8813 13.5588V21.5062H93.3489V14.0489C93.3489 12.205 92.4853 11.1897 90.7347 11.1897C88.9609 11.1897 87.8172 12.4501 87.8172 14.3523V21.5062H85.2964Z" fill="var(--fill-0, white)" fill-opacity="0.6"/>
<path d="M102.738 11.038C100.976 11.038 99.739 12.3801 99.6106 14.2356H105.749C105.691 12.3567 104.5 11.038 102.738 11.038ZM105.738 17.9001H108.13C107.78 20.1408 105.656 21.7396 102.843 21.7396C99.2372 21.7396 97.0549 19.3005 97.0549 15.426C97.0549 11.5748 99.2722 9.00737 102.738 9.00737C106.146 9.00737 108.27 11.4114 108.27 15.1342V15.9978H99.599V16.1495C99.599 18.2852 100.883 19.6973 102.902 19.6973C104.337 19.6973 105.399 18.9737 105.738 17.9001Z" fill="var(--fill-0, white)" fill-opacity="0.6"/>
<path d="M110.657 26.0809C110.459 26.0809 109.817 26.0576 109.63 26.0226V23.9803C109.817 24.0269 110.237 24.0269 110.447 24.0269C111.626 24.0269 112.244 23.5368 112.629 22.2764C112.629 22.2531 112.851 21.5295 112.851 21.5178L108.417 9.2291H111.147L114.263 19.2188H114.298L117.414 9.2291H120.075L115.465 22.148C114.415 25.1239 113.213 26.0809 110.657 26.0809Z" fill="var(--fill-0, white)" fill-opacity="0.6"/>
</g>
</g>
</svg>
