<svg preserveAspectRatio="none" width="100%" height="100%" overflow="visible" style="display: block;" viewBox="0 0 88.1185 26.2907" fill="none" xmlns="http://www.w3.org/2000/svg">
<g id="Logo Wrapper">
<g id="Vector">
<path fill-rule="evenodd" clip-rule="evenodd" d="M10.7471 5.12595C10.7471 2.94981 12.5386 1.1857 14.7486 1.1857C16.9586 1.1857 18.7502 2.94981 18.7502 5.12595V10.5297C18.7502 12.7059 16.9586 14.47 14.7486 14.47C12.5386 14.47 10.7471 12.7059 10.7471 10.5297V5.12595ZM16.0063 5.12595V10.5297C16.0063 11.2137 15.4432 11.7681 14.7486 11.7681C14.0541 11.7681 13.491 11.2137 13.491 10.5297V5.12595C13.491 4.44202 14.0541 3.88759 14.7486 3.88759C15.4432 3.88759 16.0063 4.44202 16.0063 5.12595Z" fill="var(--fill-0, white)" fill-opacity="0.6"/>
<path d="M3.59228 6.6902C2.94632 6.28271 2.71525 5.71818 2.74665 5.13117C2.78046 4.49932 3.13068 3.79978 3.7703 3.31031C4.38389 2.84076 5.286 2.5512 6.45777 2.78368C7.65158 3.02053 9.21088 3.82146 10.9943 5.70865L13.0031 3.86806C10.9565 1.70236 8.91591 0.515185 6.99974 0.13502C5.06154 -0.249518 3.34355 0.214995 2.08653 1.17693C0.85555 2.11894 0.0846718 3.52828 0.00652333 4.98903C-0.0740239 6.49462 0.592096 8.0064 2.11212 8.96526C5.67145 11.2106 7.47428 13.0778 8.43259 14.9288C9.39178 16.7815 9.59769 18.7876 9.59769 21.5624C9.59769 23.1184 10.2901 24.3492 11.3391 25.1587C12.3517 25.9402 13.6381 26.2907 14.8599 26.2907C16.0817 26.2907 17.3681 25.9402 18.3808 25.1588C19.4044 24.3689 20.0884 23.1779 20.121 21.675H20.1222C20.1222 18.9007 20.3278 16.8627 21.2906 14.9788C22.2509 13.0997 24.0551 11.2064 27.6078 8.96526C29.1279 8.0064 29.794 6.49462 29.7134 4.98903C29.6353 3.52828 28.8644 2.11894 27.6334 1.17693C26.3764 0.214995 24.6584 -0.249518 22.7202 0.13502C20.804 0.515185 18.7635 1.70236 16.7169 3.86806L18.7256 5.70865C20.5091 3.82146 22.0684 3.02053 23.2622 2.78368C24.4339 2.5512 25.3361 2.84076 25.9497 3.31031C26.5893 3.79978 26.9395 4.49932 26.9733 5.13117C27.0047 5.71818 26.7736 6.28271 26.1277 6.6902C22.3632 9.06488 20.1087 11.2808 18.8395 13.7642C17.5895 16.2102 17.3836 18.7526 17.3784 21.5624C17.3784 22.258 17.0981 22.7159 16.6882 23.0321C16.242 23.3764 15.5833 23.5888 14.86 23.5888C14.1366 23.5888 13.4779 23.3764 13.0316 23.0321C12.6218 22.7158 12.3416 22.258 12.3416 21.5624C12.3416 18.7085 12.1474 16.1551 10.8772 13.7016C9.60607 11.2465 7.35017 9.06074 3.59228 6.6902Z" fill="var(--fill-0, white)" fill-opacity="0.6"/>
</g>
<g id="AIVA">
<path d="M32.0086 22.8327L38.7916 4.40289H42.7352L49.8337 22.8327H46.2319L43.7605 16.4177H37.8977L35.6367 22.8327H32.0086ZM43.3399 13.8412L41.184 8.95118C40.9474 8.39908 41.0789 7.63664 41.0789 7.05825H40.4742C40.4742 7.63664 40.6056 8.39908 40.369 8.95118L38.2132 13.8412H43.3399Z" fill="var(--fill-0, white)" fill-opacity="0.6"/>
<path d="M51.2905 22.859V4.45547H54.7346V22.859H51.2905Z" fill="var(--fill-0, white)" fill-opacity="0.6"/>
<path d="M59.5959 4.45547L64.1968 17.0487C64.5386 17.9689 64.4597 19.2571 64.4597 20.2562H65.0381C65.0381 19.2571 64.9855 17.9689 65.301 17.0487L69.9019 4.45547H73.5826L66.7996 22.859H62.6982L55.9152 4.45547H59.5959Z" fill="var(--fill-0, white)" fill-opacity="0.6"/>
<path d="M70.2934 22.8327L77.0764 4.40289H81.02L88.1185 22.8327H84.5166L82.0453 16.4177H76.1825L73.9215 22.8327H70.2934ZM81.6247 13.8412L79.4688 8.95118C79.2322 8.39908 79.3637 7.63664 79.3637 7.05825H78.759C78.759 7.63664 78.8904 8.39908 78.6538 8.95118L76.498 13.8412H81.6247Z" fill="var(--fill-0, white)" fill-opacity="0.6"/>
</g>
</g>
</svg>
