<svg preserveAspectRatio="none" width="100%" height="100%" overflow="visible" style="display: block;" viewBox="0 0 115.533 24.5106" fill="none" xmlns="http://www.w3.org/2000/svg">
<g id="Group 2085662681">
<g id="Vector">
<path d="M11.7508 2.04077C11.7508 1.74211 11.9947 1.5 12.2956 1.5C12.5965 1.5 12.8405 1.74211 12.8405 2.04077V5.12515C12.8405 5.42381 12.5965 5.66592 12.2956 5.66592C11.9947 5.66592 11.7508 5.42381 11.7508 5.12515V2.04077Z" fill="var(--fill-0, white)" fill-opacity="0.6"/>
<path d="M19.1763 4.60625C19.3891 4.39507 19.7341 4.39507 19.9468 4.60625C20.1596 4.81743 20.1596 5.15983 19.9468 5.37101L17.7495 7.552C17.5367 7.76318 17.1917 7.76318 16.979 7.552C16.7662 7.34082 16.7662 6.99842 16.979 6.78724L19.1763 4.60625Z" fill="var(--fill-0, white)" fill-opacity="0.6"/>
<path d="M22.4657 11.7145C22.7666 11.7145 23.0106 11.9566 23.0106 12.2553C23.0106 12.5539 22.7666 12.7961 22.4657 12.7961H19.3582C19.0573 12.7961 18.8134 12.5539 18.8134 12.2553C18.8134 11.9566 19.0573 11.7145 19.3582 11.7145H22.4657Z" fill="var(--fill-0, white)" fill-opacity="0.6"/>
<path d="M19.9468 19.1248C20.1596 19.336 20.1596 19.6783 19.9468 19.8895C19.7341 20.1007 19.3891 20.1007 19.1763 19.8895L16.979 17.7085C16.7662 17.4974 16.7662 17.155 16.979 16.9438C17.1917 16.7326 17.5367 16.7326 17.7495 16.9438L19.9468 19.1248Z" fill="var(--fill-0, white)" fill-opacity="0.6"/>
<path d="M12.8001 22.4698C12.8001 22.7685 12.5562 23.0106 12.2553 23.0106C11.9544 23.0106 11.7105 22.7685 11.7105 22.4698V19.3854C11.7105 19.0868 11.9544 18.8446 12.2553 18.8446C12.5562 18.8446 12.8001 19.0868 12.8001 19.3854V22.4698Z" fill="var(--fill-0, white)" fill-opacity="0.6"/>
<path d="M5.40006 19.8895C5.18729 20.1007 4.84233 20.1007 4.62956 19.8895C4.41679 19.6783 4.41679 19.336 4.62956 19.1248L6.82692 16.9438C7.03968 16.7326 7.38465 16.7326 7.59742 16.9438C7.81019 17.155 7.81019 17.4974 7.59742 17.7085L5.40006 19.8895Z" fill="var(--fill-0, white)" fill-opacity="0.6"/>
<path d="M2.04483 12.7961C1.74393 12.7961 1.5 12.5539 1.5 12.2553C1.5 11.9566 1.74393 11.7145 2.04483 11.7145L5.15236 11.7145C5.45326 11.7145 5.69718 11.9566 5.69718 12.2553C5.69718 12.5539 5.45326 12.7961 5.15236 12.7961H2.04483Z" fill="var(--fill-0, white)" fill-opacity="0.6"/>
<path d="M4.62956 5.37101C4.41679 5.15983 4.41679 4.81744 4.62956 4.60625C4.84233 4.39507 5.1873 4.39507 5.40006 4.60625L7.59742 6.78724C7.81019 6.99842 7.81019 7.34082 7.59742 7.552C7.38465 7.76319 7.03969 7.76319 6.82692 7.552L4.62956 5.37101Z" fill="var(--fill-0, white)" fill-opacity="0.6"/>
<path fill-rule="evenodd" clip-rule="evenodd" d="M17.3605 12.2553C17.3605 15.0538 15.0748 17.3225 12.2553 17.3225C9.43574 17.3225 7.15005 15.0538 7.15005 12.2553C7.15005 9.45674 9.43574 7.18808 12.2553 7.18808C15.0748 7.18808 17.3605 9.45674 17.3605 12.2553ZM16.2709 12.2553C16.2709 14.4565 14.473 16.2409 12.2553 16.2409C10.0375 16.2409 8.23971 14.4565 8.23971 12.2553C8.23971 10.0541 10.0375 8.26962 12.2553 8.26962C14.473 8.26962 16.2709 10.0541 16.2709 12.2553Z" fill="var(--fill-0, white)" fill-opacity="0.6"/>
<path d="M12.3867 18.1016C13.0359 18.1671 13.5498 18.7125 13.5498 19.3857V22.4697C13.5498 23.1879 12.9647 23.7607 12.2549 23.7607C11.5452 23.7605 10.9609 23.1877 10.9609 22.4697V19.3857C10.9609 18.6677 11.5452 18.0949 12.2549 18.0947L12.3867 18.1016ZM6.39648 16.3232C6.87044 15.9393 7.5533 15.9394 8.02734 16.3232L8.12598 16.4111L8.21484 16.5098C8.63185 17.0175 8.60253 17.7682 8.12598 18.2412L5.92871 20.4219C5.42357 20.9232 4.60678 20.9231 4.10156 20.4219C3.59325 19.9174 3.59325 19.0973 4.10156 18.5928L6.29883 16.4111L6.39648 16.3232ZM16.4502 16.4111C16.9553 15.9098 17.7721 15.9101 18.2773 16.4111L20.4756 18.5928C20.9835 19.0973 20.9836 19.9175 20.4756 20.4219C19.9705 20.9232 19.1537 20.9231 18.6484 20.4219L16.4502 18.2412C15.9419 17.7367 15.9419 16.9156 16.4502 16.4111ZM12.2549 6.43848C15.3793 6.43848 17.9398 8.87252 18.1016 11.9463C18.241 11.3798 18.7541 10.9648 19.3584 10.9648H22.4658C23.1755 10.9649 23.7605 11.5369 23.7607 12.2549C23.7607 12.973 23.1756 13.5459 22.4658 13.5459H19.3584C18.7535 13.5459 18.2404 13.1299 18.1016 12.5625C17.9407 15.6371 15.3799 18.0723 12.2549 18.0723C9.13098 18.0721 6.56952 15.6386 6.40723 12.5654C6.26727 13.1312 5.75611 13.5459 5.15234 13.5459H2.04492C1.37933 13.5459 0.823514 13.0425 0.756836 12.3877L0.75 12.2549L0.756836 12.1221C0.82388 11.4676 1.3796 10.9648 2.04492 10.9648H5.15234C5.75551 10.9648 6.26667 11.3785 6.40723 11.9434C6.57041 8.87105 9.13158 6.43868 12.2549 6.43848ZM12.2549 9.01953C10.4464 9.01975 8.98948 10.4735 8.98926 12.2549C8.98926 14.0365 10.4462 15.491 12.2549 15.4912C14.0637 15.4912 15.5205 14.0366 15.5205 12.2549C15.5203 10.4733 14.0636 9.01953 12.2549 9.01953ZM4.19922 3.98535C4.67312 3.60158 5.35612 3.60169 5.83008 3.98535L5.92871 4.07422L8.12598 6.25488C8.63411 6.75932 8.63399 7.57947 8.12598 8.08398C7.62078 8.58542 6.80403 8.58542 6.29883 8.08398L4.10156 5.90332C3.59325 5.3988 3.59325 4.57874 4.10156 4.07422L4.19922 3.98535ZM18.7461 3.98535C19.22 3.60162 19.903 3.60165 20.377 3.98535L20.4756 4.07422L20.5645 4.17187C20.9815 4.67949 20.952 5.43027 20.4756 5.90332L18.2773 8.08398C17.7721 8.58535 16.9554 8.5854 16.4502 8.08398C15.9423 7.57949 15.9422 6.7593 16.4502 6.25488L18.6484 4.07422L18.7461 3.98535ZM12.4268 0.756836C13.0761 0.822206 13.5908 1.36762 13.5908 2.04102V5.125C13.5908 5.84306 13.0056 6.41588 12.2959 6.41602C11.5861 6.41602 11.001 5.84315 11.001 5.125V2.04102C11.001 1.32287 11.5861 0.75 12.2959 0.75L12.4268 0.756836Z" stroke="var(--stroke-0, white)" stroke-opacity="0.6" stroke-width="1.5"/>
</g>
<g id="Logo Text">
<path d="M45.5585 18.0812H37.9079L36.5934 21.8144H33.4648L40.0111 3.51612H43.4815L50.0279 21.8144H46.873L45.5585 18.0812ZM44.7172 15.6361L41.7463 7.14423L38.7492 15.6361H44.7172Z" fill="var(--fill-0, white)" fill-opacity="0.6"/>
<path d="M55.0827 2.35933V21.8144H52.0855V2.35933H55.0827Z" fill="var(--fill-0, white)" fill-opacity="0.6"/>
<path d="M71.5057 14.2164C71.5057 14.7598 71.4707 15.2505 71.4006 15.6887H60.3322C60.4198 16.8455 60.8492 17.7744 61.6204 18.4755C62.3916 19.1766 63.3381 19.5271 64.4598 19.5271C66.0723 19.5271 67.2116 18.8524 67.8776 17.5028H71.1114C70.6732 18.8348 69.8757 19.9303 68.7189 20.7891C67.5797 21.6304 66.16 22.0511 64.4598 22.0511C63.0752 22.0511 61.8308 21.7443 60.7266 21.1309C59.6399 20.4999 58.781 19.6235 58.1501 18.5018C57.5366 17.3625 57.2299 16.048 57.2299 14.5582C57.2299 13.0684 57.5279 11.7626 58.1238 10.6409C58.7372 9.50163 59.5873 8.62527 60.674 8.01182C61.7782 7.39838 63.0401 7.09165 64.4598 7.09165C65.827 7.09165 67.0451 7.38961 68.1142 7.98553C69.1834 8.58146 70.0159 9.42276 70.6119 10.5094C71.2078 11.5786 71.5057 12.8143 71.5057 14.2164ZM68.3771 13.27C68.3596 12.1658 67.9653 11.2806 67.1941 10.6146C66.4229 9.94857 65.4676 9.61556 64.3284 9.61556C63.2943 9.61556 62.4092 9.94857 61.673 10.6146C60.9369 11.2631 60.4987 12.1482 60.3585 13.27H68.3771Z" fill="var(--fill-0, white)" fill-opacity="0.6"/>
<path d="M79.8711 14.4793L84.5509 21.8144H81.1594L78.0308 16.8981L75.0862 21.8144H71.9576L76.6374 14.6897L71.9576 7.32827H75.3491L78.4777 12.2446L81.4223 7.32827H84.5509L79.8711 14.4793Z" fill="var(--fill-0, white)" fill-opacity="0.6"/>
<path d="M99.1165 7.32827V21.8144H96.1194V20.1055C95.6461 20.7015 95.0239 21.1747 94.2527 21.5252C93.4991 21.8583 92.6928 22.0248 91.834 22.0248C90.6947 22.0248 89.6694 21.7881 88.758 21.3149C87.8641 20.8417 87.1542 20.1406 86.6284 19.2117C86.1201 18.2827 85.866 17.161 85.866 15.8464V7.32827H88.8368V15.3995C88.8368 16.6965 89.1611 17.6956 89.8096 18.3966C90.4581 19.0802 91.3432 19.422 92.465 19.422C93.5867 19.422 94.4718 19.0802 95.1203 18.3966C95.7864 17.6956 96.1194 16.6965 96.1194 15.3995V7.32827H99.1165Z" fill="var(--fill-0, white)" fill-opacity="0.6"/>
<path d="M109.591 7.09165C110.73 7.09165 111.747 7.32827 112.641 7.8015C113.552 8.27473 114.262 8.97582 114.77 9.90475C115.279 10.8337 115.533 11.9554 115.533 13.27V21.8144H112.562V13.7169C112.562 12.4199 112.238 11.4296 111.589 10.7461C110.941 10.045 110.056 9.69443 108.934 9.69443C107.812 9.69443 106.918 10.045 106.252 10.7461C105.604 11.4296 105.279 12.4199 105.279 13.7169V21.8144H102.282V7.32827H105.279V8.98458C105.77 8.38866 106.392 7.92419 107.146 7.59117C107.917 7.25816 108.732 7.09165 109.591 7.09165Z" fill="var(--fill-0, white)" fill-opacity="0.6"/>
</g>
</g>
</svg>
