<svg preserveAspectRatio="none" width="100%" height="100%" overflow="visible" style="display: block;" viewBox="0 0 131.13 24.441" fill="none" xmlns="http://www.w3.org/2000/svg">
<g id="Logo">
<g id="Logo Icon">
<g id="Vector">
<path d="M20.3643 3.33186C21.5806 4.49257 22.534 5.88866 23.1724 7.42558C23.2939 7.7181 23.0729 8.03138 22.7561 8.03138H18.97C18.8091 8.03138 18.6608 7.94656 18.5732 7.81159C18.2456 7.30671 17.8587 6.83883 17.4184 6.4187C16.265 5.31795 14.8013 4.59814 13.2253 4.35669C11.6493 4.11524 10.0372 4.36381 8.60713 5.06875C7.17707 5.77369 5.99811 6.90098 5.22982 8.29803C4.46154 9.69508 4.14101 11.2944 4.31163 12.8797C4.48226 14.4649 5.13579 15.9594 6.18377 17.161C7.23176 18.3625 8.62359 19.2131 10.1709 19.5976C10.8496 19.7662 11.5437 19.8416 12.2348 19.8249C12.5043 19.8184 12.7355 20.0287 12.7355 20.2982V23.641C12.7355 23.8843 12.5456 24.0863 12.3024 24.0914C11.244 24.1139 10.1812 23.9968 9.14195 23.7386C6.74602 23.1433 4.59083 21.8262 2.96809 19.9656C1.34534 18.1051 0.333391 15.7909 0.0691925 13.3363C-0.195006 10.8817 0.301305 8.40515 1.49095 6.24189C2.6806 4.07864 4.50615 2.33311 6.72051 1.24154C8.93488 0.149975 11.4311 -0.234918 13.8715 0.138955C16.3118 0.512828 18.5783 1.62741 20.3643 3.33186Z" fill="var(--fill-0, white)" fill-opacity="0.6"/>
<path d="M11.3379 12.5519C10.9451 12.3086 11.1176 11.7029 11.5796 11.7029H22.8673C23.2332 11.7029 23.4519 12.1099 23.2501 12.415L17.1052 21.7032C16.8542 22.0826 16.2635 21.9049 16.2635 21.45V15.8594C16.2635 15.7005 16.1814 15.5529 16.0463 15.4692L11.3379 12.5519Z" fill="var(--fill-0, white)" fill-opacity="0.6"/>
</g>
</g>
<g id="rowthView">
<path d="M25.7176 24.0931V11.5732H27.8738V14.6105L27.5724 14.2163C27.727 13.8144 27.9279 13.4473 28.1752 13.115C28.4226 12.775 28.7085 12.4968 29.0331 12.2804C29.3499 12.0485 29.7016 11.8708 30.088 11.7471C30.4821 11.6157 30.884 11.5385 31.2936 11.5153C31.7032 11.4844 32.0974 11.5037 32.476 11.5732V13.8454C32.0664 13.7372 31.6105 13.7062 31.1081 13.7526C30.6135 13.799 30.1576 13.9574 29.7402 14.2279C29.3461 14.4829 29.0331 14.7921 28.8012 15.1553C28.5771 15.5185 28.4148 15.9243 28.3144 16.3725C28.2139 16.813 28.1637 17.2806 28.1637 17.7752V24.0931H25.7176Z" fill="var(--fill-0, white)" fill-opacity="0.6"/>
<path d="M38.7349 24.4409C37.4829 24.4409 36.3971 24.1588 35.4774 23.5946C34.5577 23.0304 33.8467 22.2538 33.3444 21.2645C32.8498 20.2676 32.6025 19.1199 32.6025 17.8216C32.6025 16.5155 32.8575 15.3678 33.3676 14.3786C33.8776 13.3817 34.5925 12.6088 35.5122 12.0601C36.4319 11.5037 37.5061 11.2255 38.7349 11.2255C39.9869 11.2255 41.0727 11.5075 41.9924 12.0717C42.912 12.6359 43.623 13.4126 44.1254 14.4018C44.6277 15.391 44.8789 16.5309 44.8789 17.8216C44.8789 19.1277 44.6239 20.2792 44.1138 21.2761C43.6115 22.2653 42.9004 23.042 41.9808 23.6062C41.0611 24.1626 39.9791 24.4409 38.7349 24.4409ZM38.7349 22.1571C39.9328 22.1571 40.8254 21.7553 41.4127 20.9515C42.0078 20.1401 42.3054 19.0967 42.3054 17.8216C42.3054 16.5155 42.004 15.4722 41.4012 14.6916C40.8061 13.9033 39.9173 13.5092 38.7349 13.5092C37.9234 13.5092 37.2549 13.6947 36.7294 14.0656C36.2039 14.4288 35.8136 14.935 35.5586 15.5842C35.3035 16.2257 35.176 16.9715 35.176 17.8216C35.176 19.1354 35.4774 20.1864 36.0802 20.9747C36.683 21.763 37.5679 22.1571 38.7349 22.1571Z" fill="var(--fill-0, white)" fill-opacity="0.6"/>
<path d="M48.4805 24.0931L44.655 11.5616L47.0547 11.5732L49.6745 20.1632L52.3176 11.5732H54.4043L57.0474 20.1632L59.6673 11.5732H62.0553L58.2298 24.0931H56.2823L53.361 15.0278L50.4281 24.0931H48.4805Z" fill="var(--fill-0, white)" fill-opacity="0.6"/>
<path d="M70.1361 24.0931C69.3479 24.2477 68.575 24.3133 67.8177 24.2902C67.0603 24.267 66.3841 24.1201 65.789 23.8496C65.1939 23.5792 64.7457 23.1541 64.4442 22.5745C64.1738 22.0567 64.0269 21.5312 64.0037 20.9979C63.9883 20.4569 63.9805 19.8464 63.9805 19.1663V8.0955H66.415V19.0504C66.415 19.5527 66.4188 19.9894 66.4266 20.3603C66.442 20.7313 66.5232 21.0443 66.67 21.2993C66.9482 21.7785 67.3887 22.0528 67.9915 22.1224C68.6021 22.1842 69.3169 22.1571 70.1361 22.0412V24.0931ZM61.5809 13.5208V11.5732H70.1361V13.5208H61.5809Z" fill="var(--fill-0, white)" fill-opacity="0.6"/>
<path d="M80.4036 24.0931V17.9375C80.4036 17.4506 80.3611 16.9521 80.2761 16.4421C80.1988 15.9243 80.0443 15.4451 79.8124 15.0046C79.5883 14.5641 79.2676 14.2086 78.8502 13.9381C78.4406 13.6676 77.9035 13.5324 77.2389 13.5324C76.8061 13.5324 76.3965 13.6058 76.0101 13.7526C75.6237 13.8917 75.2836 14.1197 74.9899 14.4366C74.704 14.7534 74.476 15.1708 74.306 15.6886C74.1437 16.2064 74.0625 16.8362 74.0625 17.5781L72.5555 17.0101C72.5555 15.874 72.7681 14.8732 73.1931 14.0077C73.6182 13.1344 74.2287 12.4543 75.0247 11.9674C75.8207 11.4805 76.7829 11.2371 77.9112 11.2371C78.7768 11.2371 79.5033 11.3762 80.0906 11.6544C80.678 11.9326 81.1533 12.2997 81.5165 12.7557C81.8875 13.2039 82.1695 13.6947 82.3628 14.2279C82.556 14.7612 82.6873 15.2828 82.7569 15.7929C82.8264 16.303 82.8612 16.7512 82.8612 17.1376V24.0931H80.4036ZM71.6049 24.0931V7.39995H73.7727V16.4073H74.0625V24.0931H71.6049Z" fill="var(--fill-0, white)" fill-opacity="0.6"/>
<path d="M88.6397 24.0931L83.2144 7.39995H85.73L90.3554 21.6471L95.0387 7.39995H97.5543L92.129 24.0931H88.6397Z" fill="var(--fill-0, white)" fill-opacity="0.6"/>
<path d="M97.9224 9.52137V7.1681H100.345V9.52137H97.9224ZM97.9224 24.0931V11.5732H100.345V24.0931H97.9224Z" fill="var(--fill-0, white)" fill-opacity="0.6"/>
<path d="M108.22 24.4409C106.976 24.4409 105.882 24.1704 104.939 23.6294C104.004 23.0807 103.274 22.3194 102.748 21.3457C102.23 20.3642 101.972 19.2281 101.972 17.9375C101.972 16.5696 102.227 15.3833 102.737 14.3786C103.254 13.3739 103.973 12.5972 104.893 12.0485C105.813 11.4998 106.883 11.2255 108.104 11.2255C109.379 11.2255 110.465 11.523 111.361 12.1181C112.258 12.7054 112.926 13.544 113.367 14.6336C113.815 15.7233 113.993 17.0178 113.9 18.5171H111.477V17.6361C111.462 16.1832 111.184 15.1089 110.643 14.4134C110.109 13.7178 109.294 13.3701 108.197 13.3701C106.983 13.3701 106.071 13.7526 105.461 14.5177C104.85 15.2828 104.545 16.388 104.545 17.8332C104.545 19.2088 104.85 20.2753 105.461 21.0327C106.071 21.7823 106.952 22.1571 108.104 22.1571C108.861 22.1571 109.514 21.9871 110.063 21.6471C110.62 21.2993 111.052 20.8047 111.361 20.1632L113.738 20.9168C113.251 22.0374 112.513 22.9068 111.524 23.5251C110.535 24.1356 109.433 24.4409 108.22 24.4409ZM103.757 18.5171V16.6275H112.695V18.5171H103.757Z" fill="var(--fill-0, white)" fill-opacity="0.6"/>
<path d="M117.555 24.0931L113.73 11.5616L116.129 11.5732L118.749 20.1632L121.392 11.5732H123.479L126.122 20.1632L128.742 11.5732H131.13L127.305 24.0931H125.357L122.436 15.0278L119.503 24.0931H117.555Z" fill="var(--fill-0, white)" fill-opacity="0.6"/>
</g>
</g>
</svg>
